<?xml version="1.0" encoding="utf-8"?>
<!-- Generator: Adobe Illustrator 28.0.0, SVG Export Plug-In . SVG Version: 6.00 Build 0)  -->
<svg version="1.1" id="Capa_1" xmlns="http://www.w3.org/2000/svg" xmlns:xlink="http://www.w3.org/1999/xlink" x="0px" y="0px"
	 viewBox="0 0 688 688" style="enable-background:new 0 0 688 688;" xml:space="preserve">
<style type="text/css">
	.st0{fill:#FBCC34;}
	.st1{fill:#0C273C;}
</style>
<circle class="st0" cx="344.5" cy="344.5" r="341.5"/>
<g transform="translate(0.000000,487.000000) scale(0.100000,-0.100000)">
	<path class="st1" d="M2417.9,3898.7c-226.7-210.2-383.9-481.6-461.7-797.7c-41.4-168.8-38.1-501.5,8.3-688.5
		c44.7-175.4,140.7-388.9,241.6-527.9c64.5-92.7,210.2-240,354.2-364.1c28.1-24.8,53-54.6,53-66.2c0-34.8,266.4-509.7,289.6-518
		c18.2-8.3,167.2,13.2,268.1,38.1c31.4,6.6,38.1-1.7,54.6-81.1c11.6-49.6,16.5-148.9,13.2-221.8c-6.6-112.5-14.9-144-64.5-226.7
		l-56.3-94.3l18.2-211.8c11.6-115.8,24.8-231.7,31.4-258.2c11.6-39.7,8.3-44.7-13.2-33.1c-16.5,9.9-87.7,9.9-178.7,0
		c-96-9.9-162.2-9.9-178.7,0c-14.9,9.9-38.1,13.2-53,11.6c-41.4-9.9-130.7-145.6-127.4-190.3c5-38.1,3.3-38.1-243.3-49.6
		c-685.2-33.1-461.7-41.4,1092.3-41.4c1419.9,0,1592.1,1.7,1381.9,19.9C4715-390.9,4470-376,4302.9-369.4
		c-249.9,9.9-317.8,18.2-380.6,46.3c-41.4,18.2-79.4,34.8-81.1,38.1c-3.3,1.7,26.5,66.2,67.9,142.3
		c39.7,76.1,114.2,215.1,165.5,311.1l91,173.8l-44.7,53c-44.7,53-49.6,54.6-278,81.1l-233.3,28.1l59.6,130.7
		c31.4,71.2,54.6,132.4,51.3,135.7c-3.3,3.3-21.5,9.9-38.1,13.2c-24.8,3.3-36.4-11.6-56.3-66.2c-29.8-89.4-43-81.1-21.5,14.9
		c18.2,81.1,13.2,97.6-33.1,97.6c-24.8,0-44.7-24.8-72.8-91c-23.2-49.6-44.7-91-48-91c-5,0,3.3,38.1,16.5,84.4
		c23.2,79.4,23.2,86.1-5,107.6c-26.5,19.9-21.5,21.5,48,23.2c67.9,0,77.8,5,92.7,46.3l16.5,44.7l1.7-53
		c1.7-44.7,11.6-59.6,66.2-87.7c74.5-38.1,96-28.1,134.1,66.2c18.2,43,49.6,66.2,162.2,122.5l140.7,67.9l213.5,296.2
		c115.8,162.2,211.8,304.5,211.8,314.4c0,11.6,19.9,38.1,43,61.2c59.6,54.6,175.4,220.1,228.4,324.4
		c148.9,297.9,203.6,627.2,152.3,935c-66.2,405.5-246.6,711.6-580.9,989.7c-26.5,23.2-3.3-8.3,51.3-67.9
		c193.6-211.8,312.8-443.5,364.1-706.7c82.7-431.9-61.2-897-374-1211.4c-173.8-177.1-379-297.9-622.3-367.4
		c-172.1-49.6-519.7-53-685.2-6.6c-438.6,120.8-781.1,420.4-941.7,824.2c-201.9,506.4-94.3,1059.2,284.7,1464.6
		c54.6,56.3,94.3,104.3,91,104.3C2555.2,4024.5,2492.4,3968.2,2417.9,3898.7z M3836.2,1517.3c23.2-13.2,59.6-38.1,81.1-56.3
		c36.4-31.4,36.4-36.4,13.2-82.7c-39.7-76.1-33.1-86.1,38.1-59.6c79.4,28.1,125.8,56.3,266.4,162.2l107.6,82.7l-139-142.3
		c-109.2-110.9-137.4-148.9-129.1-177.1c6.6-28.1,3.3-33.1-23.2-24.8c-59.6,19.9-210.2-23.2-243.3-69.5
		c-24.8-33.1-39.7-39.7-62.9-29.8c-29.8,13.2-29.8,14.9,5,19.9c19.9,5,41.4,21.5,46.3,38.1s19.9,34.8,33.1,39.7
		c13.2,5,24.8,23.2,24.8,41.4s13.2,59.6,28.1,92.7c28.1,57.9,28.1,59.6-13.2,99.3c-21.5,21.5-74.5,48-115.8,59.6
		c-72.8,19.9-79.4,18.2-135.7-26.5c-34.8-24.8-82.7-74.5-109.2-110.9c-46.3-61.2-48-69.5-24.8-104.3c21.5-33.1,21.5-38.1-1.7-48
		c-14.9-5-48,1.7-74.5,14.9c-64.5,33.1-201.9,5-187-38.1c8.3-19.9,3.3-23.2-21.5-13.2c-44.7,18.2-41.4,18.2-117.5,3.3
		c-48-8.3-81.1-26.5-102.6-56.3l-33.1-44.7l-1.7,46.3c0,34.8-28.1,79.4-94.3,157.2c-56.3,62.9-82.7,102.6-62.9,96
		c273.1-110.9,383.9-135.7,496.5-110.9c69.5,14.9,97.6,14.9,125.8,0c31.4-16.5,34.8-14.9,24.8,9.9
		c-13.2,36.4,66.2,145.6,160.5,220.1c59.6,48,77.8,54.6,134.1,46.3C3763.4,1545.4,3811.4,1530.5,3836.2,1517.3z M3510.1,259.5
		l-6.6-41.4H3669c94.3,0,172.1,6.6,177.1,16.5c5,9.9,18.2,16.5,26.5,16.5c9.9,0,0-21.5-21.5-48c-34.8-39.7-44.7-77.8-62.9-251.6
		c-16.5-167.2-28.1-211.8-56.3-243.3c-18.2-21.5-34.8-44.7-34.8-49.6c0-6.6-72.8-11.6-162.2-11.6h-162.2l8.3,41.4
		c3.3,23.2,31.4,170.5,61.2,327.7c29.8,155.6,59.6,284.7,66.2,284.7C3513.5,300.9,3515.1,282.7,3510.1,259.5z M2942.5-298.2
		c96-19.9,182-41.4,192-49.6c8.3-6.6-91-13.2-221.8-13.2c-246.6,0-246.6,0-187,71.2C2755.5-255.2,2732.3-255.2,2942.5-298.2z"/>
	<path class="st1" d="M1603.6-625.9c-29.8-29.8-33.1-54.6-33.1-281.3v-248.2h57.9h57.9v91v91h132.4h132.4v57.9v57.9h-132.4h-132.4
		v74.5v74.5h165.5h165.5v-223.4v-223.4h57.9h57.9v248.2c0,326,11.6,314.4-281.3,314.4C1658.3-592.8,1633.4-596.1,1603.6-625.9z"/>
	<path class="st1" d="M2364.9-650.7v-57.9h117.5h115.8l-5-223.4l-5-223.4h54.6h53v223.4v223.4h115.8h115.8v57.9v57.9h-281.3h-281.3
		V-650.7z"/>
	<path class="st1" d="M3142.8-874.2v-281.3h289.6H3722v57.9v57.9h-231.7h-231.7v223.4v223.4h-57.9h-57.9V-874.2z"/>
	<path class="st1" d="M3955.3-635.8c-31.4-39.7-34.8-66.2-34.8-281.3v-238.3h57.9h57.9v91v91h132.4h132.4v57.9v57.9h-132.4h-132.4
		v74.5v74.5h173.8H4384v-223.4v-223.4h57.9h57.9v238.3c0,215.1-3.3,241.6-34.8,281.3c-33.1,43-36.4,43-254.9,43
		S3988.4-592.8,3955.3-635.8z"/>
	<path class="st1" d="M4776.2-622.6c-19.9-21.5-28.1-61.2-28.1-139c0-153.9,11.6-162.2,253.2-162.2h193.6v-57.9v-57.9h-223.4
		c-210.2,0-223.4-1.7-223.4-31.4c0-67.9,59.6-84.4,284.7-84.4c190.3,0,215.1,3.3,244.9,33.1c46.3,46.3,46.3,210.2,1.7,266.4
		c-29.8,38.1-44.7,39.7-228.4,43l-195.3,3.3l-5,51.3l-5,49.6h231.7c196.9,0,233.3,3.3,233.3,24.8c0,13.2-14.9,39.7-33.1,57.9
		c-29.8,29.8-54.6,33.1-253.2,33.1C4830.8-592.8,4799.4-596.1,4776.2-622.6z"/>
</g>
</svg>
